<svg width="194" height="44" viewBox="0 0 194 44" fill="none" xmlns="http://www.w3.org/2000/svg">
<rect x="27" y="30.5" width="17" height="10" transform="rotate(-90 27 30.5)" fill="#0F43F9"/>
<rect x="27" y="13.5" width="17" height="10" transform="rotate(-180 27 13.5)" fill="#0F43F9"/>
<rect x="27" y="40.5" width="17" height="10" transform="rotate(-180 27 40.5)" fill="#0F43F9"/>
<rect y="30.5" width="17" height="10" transform="rotate(-90 0 30.5)" fill="#0F43F9"/>
<path d="M48.54 16.964C48.6333 15.0973 49.2867 13.66 50.5 12.652C51.732 11.6253 53.3467 11.112 55.344 11.112C56.7067 11.112 57.8733 11.3547 58.844 11.84C59.8147 12.3067 60.5427 12.9507 61.028 13.772C61.532 14.5747 61.784 15.4893 61.784 16.516C61.784 17.692 61.476 18.6907 60.86 19.512C60.2627 20.3147 59.544 20.856 58.704 21.136V21.248C59.7867 21.584 60.6267 22.1813 61.224 23.04C61.84 23.8987 62.148 25 62.148 26.344C62.148 27.464 61.8867 28.4627 61.364 29.34C60.86 30.2173 60.104 30.908 59.096 31.412C58.1067 31.8973 56.912 32.14 55.512 32.14C53.4027 32.14 51.6853 31.608 50.36 30.544C49.0347 29.48 48.3347 27.912 48.26 25.84H52.068C52.1053 26.7547 52.4133 27.492 52.992 28.052C53.5893 28.5933 54.4013 28.864 55.428 28.864C56.38 28.864 57.108 28.6027 57.612 28.08C58.1347 27.5387 58.396 26.848 58.396 26.008C58.396 24.888 58.0413 24.0853 57.332 23.6C56.6227 23.1147 55.5213 22.872 54.028 22.872H53.216V19.652H54.028C56.6787 19.652 58.004 18.7653 58.004 16.992C58.004 16.1893 57.7613 15.564 57.276 15.116C56.8093 14.668 56.128 14.444 55.232 14.444C54.3547 14.444 53.6733 14.6867 53.188 15.172C52.7213 15.6387 52.4507 16.236 52.376 16.964H48.54ZM91.8177 12.456L86.3577 32H81.7377L78.0697 18.084L74.2337 32L69.6417 32.028L64.3777 12.456H68.5777L72.0217 27.632L75.9977 12.456H80.3657L84.1177 27.548L87.5897 12.456H91.8177ZM98.2973 15.62V20.52H104.877V23.628H98.2973V28.808H105.717V32H94.3773V12.428H105.717V15.62H98.2973ZM120.368 21.976C121.469 22.1813 122.374 22.732 123.084 23.628C123.793 24.524 124.148 25.5507 124.148 26.708C124.148 27.7533 123.886 28.6773 123.364 29.48C122.86 30.264 122.122 30.88 121.152 31.328C120.181 31.776 119.033 32 117.708 32H109.28V12.456H117.344C118.669 12.456 119.808 12.6707 120.76 13.1C121.73 13.5293 122.458 14.1267 122.944 14.892C123.448 15.6573 123.7 16.5253 123.7 17.496C123.7 18.6347 123.392 19.5867 122.776 20.352C122.178 21.1173 121.376 21.6587 120.368 21.976ZM113.2 20.52H116.784C117.717 20.52 118.436 20.3147 118.94 19.904C119.444 19.4747 119.696 18.868 119.696 18.084C119.696 17.3 119.444 16.6933 118.94 16.264C118.436 15.8347 117.717 15.62 116.784 15.62H113.2V20.52ZM117.148 28.808C118.1 28.808 118.837 28.584 119.36 28.136C119.901 27.688 120.172 27.0533 120.172 26.232C120.172 25.392 119.892 24.7387 119.332 24.272C118.772 23.7867 118.016 23.544 117.064 23.544H113.2V28.808H117.148ZM131.192 28.892H137.632V32H127.272V12.456H131.192V28.892ZM152.107 28.276H144.323L143.035 32H138.919L145.947 12.428H150.511L157.539 32H153.395L152.107 28.276ZM151.043 25.14L148.215 16.964L145.387 25.14H151.043ZM171.254 21.976C172.356 22.1813 173.261 22.732 173.97 23.628C174.68 24.524 175.034 25.5507 175.034 26.708C175.034 27.7533 174.773 28.6773 174.25 29.48C173.746 30.264 173.009 30.88 172.038 31.328C171.068 31.776 169.92 32 168.594 32H160.166V12.456H168.23C169.556 12.456 170.694 12.6707 171.646 13.1C172.617 13.5293 173.345 14.1267 173.83 14.892C174.334 15.6573 174.586 16.5253 174.586 17.496C174.586 18.6347 174.278 19.5867 173.662 20.352C173.065 21.1173 172.262 21.6587 171.254 21.976ZM164.086 20.52H167.67C168.604 20.52 169.322 20.3147 169.826 19.904C170.33 19.4747 170.582 18.868 170.582 18.084C170.582 17.3 170.33 16.6933 169.826 16.264C169.322 15.8347 168.604 15.62 167.67 15.62H164.086V20.52ZM168.034 28.808C168.986 28.808 169.724 28.584 170.246 28.136C170.788 27.688 171.058 27.0533 171.058 26.232C171.058 25.392 170.778 24.7387 170.218 24.272C169.658 23.7867 168.902 23.544 167.95 23.544H164.086V28.808H168.034ZM184.907 32.196C183.544 32.196 182.312 31.9627 181.211 31.496C180.128 31.0293 179.269 30.3573 178.635 29.48C178 28.6027 177.673 27.5667 177.655 26.372H181.855C181.911 27.1747 182.191 27.8093 182.695 28.276C183.217 28.7427 183.927 28.976 184.823 28.976C185.737 28.976 186.456 28.7613 186.979 28.332C187.501 27.884 187.763 27.3053 187.763 26.596C187.763 26.0173 187.585 25.5413 187.231 25.168C186.876 24.7947 186.428 24.5053 185.887 24.3C185.364 24.076 184.636 23.8333 183.703 23.572C182.433 23.1987 181.397 22.8347 180.595 22.48C179.811 22.1067 179.129 21.556 178.551 20.828C177.991 20.0813 177.711 19.092 177.711 17.86C177.711 16.7027 178 15.6947 178.579 14.836C179.157 13.9773 179.969 13.324 181.015 12.876C182.06 12.4093 183.255 12.176 184.599 12.176C186.615 12.176 188.248 12.6707 189.499 13.66C190.768 14.6307 191.468 15.9933 191.599 17.748H187.287C187.249 17.076 186.96 16.5253 186.419 16.096C185.896 15.648 185.196 15.424 184.319 15.424C183.553 15.424 182.937 15.62 182.471 16.012C182.023 16.404 181.799 16.9733 181.799 17.72C181.799 18.2427 181.967 18.6813 182.303 19.036C182.657 19.372 183.087 19.652 183.591 19.876C184.113 20.0813 184.841 20.324 185.775 20.604C187.044 20.9773 188.08 21.3507 188.883 21.724C189.685 22.0973 190.376 22.6573 190.955 23.404C191.533 24.1507 191.823 25.1307 191.823 26.344C191.823 27.3893 191.552 28.36 191.011 29.256C190.469 30.152 189.676 30.8707 188.631 31.412C187.585 31.9347 186.344 32.196 184.907 32.196Z" fill="black"/>
</svg>
