<svg width="49" height="49" viewBox="0 0 49 49" fill="none" xmlns="http://www.w3.org/2000/svg">
<g clip-path="url(#clip0_261_2642)">
<rect x="0.318848" y="0.5" width="48" height="48" rx="24" fill="#30D72D"/>
<g clip-path="url(#clip1_261_2642)">
<path d="M15.1096 27.4626C14.3056 26.1983 12.807 24.4617 12.807 22.9593C12.8248 22.4722 12.9893 22.0019 13.279 21.6098C13.5687 21.2178 13.9701 20.9224 14.4305 20.7623C14.3564 19.498 14.3056 18.2102 14.3056 16.9342C14.3056 16.181 14.3056 15.4201 14.3486 14.6747C14.3878 14.2007 14.4727 13.7315 14.6022 13.2738C15.1905 11.3577 16.472 9.7298 18.1965 8.70809C18.8132 8.33111 19.4671 8.01858 20.1478 7.77544C21.3927 7.32667 22.1078 5.80309 23.462 5.77577C26.6269 5.69383 30.4974 8.03299 32.5267 10.23C33.82 11.6602 34.5556 13.508 34.599 15.4357L34.4702 20.977C34.7696 21.0391 35.0485 21.1757 35.2811 21.3742C35.5137 21.5727 35.6925 21.8267 35.801 22.1125C36.2341 23.8647 34.4194 26.0383 33.5765 27.4314C32.796 28.7153 29.8222 32.8673 29.8222 32.8946C29.8384 33.1324 29.9315 33.3584 30.0876 33.5385C34.7043 39.8837 48.3189 35.8789 48.3189 48.4989H24.5192L0.318848 48.5C0.318848 35.876 13.892 39.8876 18.5048 33.5424C18.7311 33.2107 18.8365 33.0273 18.8326 32.8829C18.8326 32.801 15.414 27.966 15.1096 27.4782V27.4626Z" fill="white"/>
</g>
</g>
<defs>
<clipPath id="clip0_261_2642">
<rect x="0.318848" y="0.5" width="48" height="48" rx="24" fill="white"/>
</clipPath>
<clipPath id="clip1_261_2642">
<rect width="48" height="48" fill="white" transform="translate(0.318848 0.5)"/>
</clipPath>
</defs>
</svg>
