<svg width="93" height="30" viewBox="0 0 93 30" fill="none" xmlns="http://www.w3.org/2000/svg">
<path d="M11.9637 0H12.781C15.6183 0.0616822 18.4095 1.2028 20.4141 3.2229C19.6739 3.9785 18.9183 4.70327 18.1936 5.45888C17.0679 4.44112 15.7109 3.65467 14.2305 3.3771C12.0408 2.91448 9.68142 3.33084 7.84638 4.57991C5.84171 5.89065 4.4847 8.11121 4.19171 10.486C3.86788 12.8299 4.53096 15.2972 6.05759 17.1168C7.52255 18.8902 9.75853 20.0005 12.0716 20.0776C14.2305 20.2009 16.4819 19.5378 18.0548 18.0266C19.2884 16.9626 19.859 15.3435 20.044 13.7706C17.4842 13.7706 14.9244 13.786 12.3646 13.7706V10.5939H23.1436C23.6987 14.0019 22.8968 17.8416 20.3062 20.278C18.5791 22.0051 16.1889 23.0229 13.7524 23.2234C11.3931 23.4547 8.95666 23.0075 6.85946 21.8663C4.34591 20.5248 2.34124 18.2579 1.35433 15.5902C0.429092 13.1383 0.413672 10.3626 1.27722 7.89532C2.06367 5.64392 3.57489 3.65467 5.51788 2.26682C7.38376 0.894392 9.65058 0.138785 11.9637 0Z" fill="#30D72D"/>
<path d="M73.8003 0.80188H77.1003V22.8224C76.0054 22.8224 74.8952 22.8379 73.8003 22.807C73.8157 15.4822 73.8003 8.14206 73.8003 0.80188Z" fill="#30D72D"/>
<path d="M30.4839 8.43513C32.5195 8.04962 34.7246 8.48139 36.4054 9.69962C37.9321 10.7791 38.9961 12.4753 39.3199 14.3258C39.7363 16.4692 39.212 18.8132 37.8241 20.5094C36.3283 22.4062 33.8765 23.4239 31.4863 23.2697C29.2966 23.1463 27.1685 22.0515 25.8732 20.2627C24.4082 18.2889 24.0536 15.5748 24.8554 13.2618C25.6573 10.7791 27.9241 8.88233 30.4839 8.43513ZM30.9466 11.365C30.1139 11.5809 29.3428 12.059 28.7877 12.7375C27.2919 14.5263 27.3844 17.4407 29.0344 19.1062C29.9751 20.0622 31.3938 20.5094 32.7045 20.2473C33.9227 20.0314 34.9867 19.2141 35.5727 18.1347C36.5905 16.2996 36.2975 13.7706 34.74 12.3365C33.7377 11.4113 32.2727 11.0258 30.9466 11.365Z" fill="#30D72D"/>
<path d="M46.8297 8.43505C49.1582 7.98785 51.7026 8.63551 53.4451 10.2701C56.2825 12.8145 56.5909 17.5794 54.1699 20.5093C52.7049 22.3598 50.3302 23.3776 47.9862 23.2696C45.7502 23.2079 43.5451 22.0977 42.2189 20.2626C40.7231 18.2425 40.3993 15.4668 41.2474 13.1075C42.0956 10.7019 44.3161 8.86682 46.8297 8.43505ZM47.2923 11.365C46.4596 11.5808 45.6886 12.0589 45.1334 12.722C43.6531 14.4799 43.7147 17.3481 45.3031 19.029C46.2437 20.0313 47.7087 20.5248 49.0657 20.2472C50.2685 20.0159 51.3479 19.214 51.9339 18.1346C52.9362 16.2841 52.6432 13.7551 51.0703 12.321C50.068 11.3958 48.603 11.0257 47.2923 11.365Z" fill="#30D72D"/>
<path d="M60.6925 9.32943C62.4659 8.21915 64.8252 7.91074 66.7374 8.86681C67.3388 9.12896 67.8322 9.57616 68.3103 10.0234C68.3257 9.607 68.3103 9.17522 68.3257 8.74345C69.3589 8.75887 70.392 8.74345 71.4406 8.75887V22.3598C71.4252 24.4107 70.9009 26.585 69.4205 28.0808C67.8014 29.7308 65.3187 30.2397 63.0827 29.9004C60.6925 29.5458 58.6107 27.8033 57.6855 25.5981C58.6107 25.1509 59.5822 24.7962 60.5383 24.3799C61.078 25.6444 62.1729 26.7238 63.5453 26.9705C64.9177 27.2173 66.5061 26.878 67.4005 25.7369C68.3565 24.5649 68.3565 22.9612 68.3103 21.5271C67.6009 22.221 66.7836 22.8378 65.7967 23.0691C63.6533 23.6705 61.2939 22.9304 59.6439 21.4808C57.9785 20.0313 56.9916 17.7953 57.0841 15.5748C57.1304 13.0612 58.5491 10.6402 60.6925 9.32943ZM63.8846 11.3033C62.9439 11.4575 62.0649 11.9818 61.4635 12.7065C60.014 14.4336 60.014 17.1939 61.479 18.8902C62.3117 19.8925 63.6533 20.4476 64.9486 20.3089C66.1668 20.1855 67.2925 19.4145 67.8939 18.3505C68.9117 16.5462 68.742 14.0944 67.3696 12.5215C66.5215 11.55 65.1645 11.072 63.8846 11.3033Z" fill="#30D72D"/>
<path d="M81.0632 10.1157C82.9136 8.38864 85.7664 7.80265 88.1412 8.71247C90.3926 9.5606 91.8267 11.7041 92.5515 13.9092C89.2052 15.297 85.8744 16.6695 82.5281 18.0573C82.9907 18.9363 83.7001 19.7382 84.6562 20.062C85.9977 20.54 87.6015 20.3704 88.7272 19.476C89.1744 19.1368 89.5291 18.6896 89.8683 18.2578C90.7164 18.8284 91.5646 19.3835 92.4127 19.9541C91.2099 21.7583 89.1898 23.0227 87.0155 23.2232C84.6099 23.5162 82.0501 22.591 80.4926 20.7097C77.9328 17.7489 78.1795 12.7835 81.0632 10.1157ZM82.7132 12.9685C82.1889 13.7241 81.973 14.6494 81.9884 15.5592C84.2244 14.634 86.4604 13.7087 88.6963 12.7681C88.3263 11.9045 87.4319 11.3802 86.5221 11.2414C85.0571 10.9793 83.5305 11.7657 82.7132 12.9685Z" fill="#30D72D"/>
</svg>
