<svg width="142" height="30" viewBox="0 0 142 30" fill="none" xmlns="http://www.w3.org/2000/svg">
<path d="M15.0813 14.2551H0.826172V0H15.0813V14.2551Z" fill="#30D72D"/>
<path d="M30.8208 14.2551H16.5659V0H30.8208V14.2551Z" fill="#182F43"/>
<path d="M15.0809 30H0.826172V15.745H15.0809V30Z" fill="#182F43"/>
<path d="M30.8208 30H16.5659V15.745H30.8208V30Z" fill="#30D72D"/>
<path d="M141.355 14.0798V11.6085H138.286V7.76657L138.183 7.79838L135.3 8.68032L135.243 8.69758V11.6086H130.694V9.98691C130.694 9.2318 130.863 8.65394 131.195 8.26857C131.526 7.88782 131.999 7.69425 132.601 7.69425C133.035 7.69425 133.483 7.79634 133.935 7.99765L134.048 8.04822V5.44563L133.995 5.42605C133.574 5.27462 133.001 5.19836 132.29 5.19836C131.395 5.19836 130.582 5.39316 129.873 5.77921C129.163 6.16581 128.605 6.7177 128.214 7.41939C127.824 8.12027 127.626 8.92975 127.626 9.82556V11.6085H125.489V14.0798H127.626V24.4908H130.694V14.0798H135.243V20.6958C135.243 23.4206 136.529 24.8014 139.063 24.8014C139.48 24.8014 139.918 24.7526 140.366 24.6571C140.822 24.5589 141.132 24.4609 141.315 24.3562L141.355 24.3323V21.8382L141.23 21.9207C141.064 22.0316 140.856 22.1223 140.613 22.1897C140.369 22.2584 140.165 22.2928 140.007 22.2928C139.414 22.2928 138.974 22.1328 138.702 21.817C138.426 21.4984 138.286 20.9412 138.286 20.1617V14.0798H141.355ZM118.639 22.2932C117.525 22.2932 116.647 21.924 116.029 21.1967C115.406 20.4658 115.091 19.4237 115.091 18.0997C115.091 16.7337 115.406 15.6646 116.029 14.9208C116.648 14.1818 117.518 13.8068 118.614 13.8068C119.677 13.8068 120.524 14.165 121.131 14.872C121.74 15.5826 122.05 16.6432 122.05 18.0251C122.05 19.424 121.759 20.4986 121.185 21.2174C120.615 21.9308 119.759 22.2932 118.639 22.2932ZM118.775 11.2981C116.651 11.2981 114.964 11.9206 113.761 13.1482C112.558 14.376 111.949 16.075 111.949 18.1986C111.949 20.2155 112.544 21.8379 113.718 23.0199C114.891 24.2022 116.488 24.8011 118.465 24.8011C120.524 24.8011 122.177 24.17 123.38 22.9254C124.582 21.6821 125.191 19.9991 125.191 17.9252C125.191 15.8767 124.62 14.2422 123.492 13.0681C122.363 11.8935 120.776 11.2981 118.775 11.2981ZM107.003 11.2981C105.558 11.2981 104.363 11.6677 103.45 12.3965C102.531 13.1296 102.065 14.091 102.065 15.2545C102.065 15.8593 102.166 16.3965 102.364 16.8521C102.563 17.3093 102.871 17.7118 103.28 18.0496C103.687 18.3846 104.314 18.7356 105.145 19.0927C105.844 19.3802 106.365 19.6234 106.696 19.8151C107.019 20.0029 107.249 20.1918 107.378 20.3757C107.504 20.5557 107.568 20.802 107.568 21.1059C107.568 21.9714 106.92 22.3925 105.587 22.3925C105.092 22.3925 104.528 22.2892 103.909 22.0856C103.296 21.885 102.717 21.5913 102.192 21.2148L102.065 21.1234V24.0769L102.111 24.0986C102.546 24.299 103.093 24.468 103.738 24.6009C104.382 24.734 104.967 24.8017 105.475 24.8017C107.043 24.8017 108.305 24.4303 109.227 23.6972C110.154 22.9591 110.624 21.9749 110.624 20.7712C110.624 19.9029 110.371 19.1582 109.872 18.5577C109.377 17.962 108.518 17.4152 107.319 16.9318C106.364 16.5485 105.752 16.2302 105.499 15.986C105.256 15.75 105.132 15.4163 105.132 14.9936C105.132 14.619 105.285 14.3189 105.598 14.0758C105.914 13.8315 106.353 13.7073 106.904 13.7073C107.415 13.7073 107.938 13.788 108.458 13.9463C108.977 14.1045 109.434 14.3164 109.815 14.5756L109.94 14.6613V11.8597L109.892 11.839C109.541 11.6883 109.077 11.5593 108.514 11.4546C107.954 11.3506 107.445 11.2981 107.003 11.2981ZM94.0679 22.2932C92.9547 22.2932 92.0766 21.924 91.4581 21.1967C90.8355 20.4658 90.5207 19.424 90.5207 18.0997C90.5207 16.7337 90.8359 15.6646 91.4588 14.9208C92.0773 14.1818 92.9465 13.8068 94.0433 13.8068C95.1065 13.8068 95.9533 14.165 96.5599 14.872C97.1696 15.5826 97.4789 16.6432 97.4789 18.0251C97.4789 19.424 97.1878 20.4986 96.6142 21.2174C96.0445 21.9308 95.1882 22.2932 94.0679 22.2932ZM94.2046 11.2981C92.0798 11.2981 90.3925 11.9206 89.1901 13.1482C87.9879 14.376 87.378 16.075 87.378 18.1986C87.378 20.2164 87.9734 21.8379 89.1471 23.0199C90.3207 24.2022 91.9178 24.8011 93.8939 24.8011C95.9527 24.8011 97.6068 24.17 98.8092 22.9254C100.011 21.6821 100.621 19.9991 100.621 17.9252C100.621 15.8767 100.049 14.2422 98.9209 13.0681C97.7922 11.8935 96.2053 11.2981 94.2046 11.2981ZM82.7215 13.8394V11.6085H79.6912V24.4905H82.7215V17.9009C82.7215 16.7804 82.9755 15.8598 83.4768 15.1645C83.9718 14.4775 84.6313 14.1294 85.4366 14.1294C85.7096 14.1294 86.0159 14.1744 86.3478 14.2634C86.6762 14.3519 86.9141 14.448 87.0543 14.5491L87.1817 14.6414V11.5865L87.1326 11.5654C86.8504 11.4455 86.4512 11.385 85.9461 11.385C85.1846 11.385 84.5031 11.6297 83.9194 12.1114C83.4071 12.5349 83.0368 13.1154 82.7537 13.8394H82.7215ZM74.2646 11.2981C72.8744 11.2981 71.6344 11.5962 70.5797 12.1839C69.5228 12.7729 68.7054 13.6138 68.1493 14.683C67.5957 15.7497 67.3146 16.9957 67.3146 18.3852C67.3146 19.6023 67.5871 20.7193 68.1258 21.7037C68.6648 22.6898 69.4276 23.4612 70.3933 23.9963C71.3576 24.5306 72.4722 24.8016 73.7062 24.8016C75.1463 24.8016 76.3758 24.5136 77.3616 23.9458L77.4014 23.923V21.1468L77.274 21.2398C76.8275 21.5651 76.3285 21.8247 75.7915 22.0118C75.256 22.1987 74.7677 22.2932 74.3395 22.2932C73.1505 22.2932 72.1959 21.9211 71.5031 21.1876C70.8087 20.4532 70.4567 19.4218 70.4567 18.1241C70.4567 16.8181 70.8238 15.7603 71.5474 14.9798C72.2688 14.2015 73.2251 13.8068 74.3895 13.8068C75.3855 13.8068 76.3561 14.144 77.2743 14.8101L77.4014 14.9024V11.9773L77.3603 11.9542C77.0148 11.7607 76.5435 11.601 75.9585 11.4799C75.3758 11.359 74.806 11.2981 74.2646 11.2981ZM65.2276 11.6086H62.1973V24.4905H65.2276V11.6086ZM63.7434 6.12081C63.2447 6.12081 62.8097 6.29059 62.4523 6.62703C62.0935 6.96442 61.9114 7.38921 61.9114 7.89054C61.9114 8.38398 62.0913 8.80103 62.4468 9.12944C62.7999 9.45691 63.2363 9.62288 63.7436 9.62288C64.2507 9.62288 64.6887 9.45691 65.0461 9.12999C65.4058 8.80102 65.5882 8.38412 65.5882 7.89054C65.5882 7.40675 65.4107 6.98631 65.0609 6.64062C64.7114 6.29562 64.268 6.12081 63.7434 6.12081ZM56.1828 10.6582V24.4905H59.2753V6.51516H54.9951L49.5548 19.8667L44.2752 6.51516H39.8208V24.4904H42.7269V10.6568H42.8267L48.4018 24.4905H50.5949L56.083 10.6582H56.1828Z" fill="#3F69FA"/>
</svg>
