<svg width="73" height="30" viewBox="0 0 73 30" fill="none" xmlns="http://www.w3.org/2000/svg">
<path fill-rule="evenodd" clip-rule="evenodd" d="M72.8265 15.5007C72.8265 10.3739 70.3496 6.32849 65.6156 6.32849C60.8617 6.32849 57.9854 10.3739 57.9854 15.4606C57.9854 21.4887 61.381 24.5327 66.2548 24.5327C68.6318 24.5327 70.4295 23.992 71.7878 23.231V19.2257C70.4295 19.9066 68.8715 20.3271 66.894 20.3271C64.9565 20.3271 63.2387 19.6462 63.0189 17.2831H72.7865C72.7865 17.0227 72.8265 15.9813 72.8265 15.5007ZM62.959 13.5982C62.959 11.3352 64.3373 10.3939 65.5957 10.3939C66.8141 10.3939 68.1125 11.3352 68.1125 13.5982H62.959Z" fill="#30D72D"/>
<path fill-rule="evenodd" clip-rule="evenodd" d="M50.2751 6.32849C48.3176 6.32849 47.0592 7.24972 46.3601 7.89057L46.1005 6.64892H41.7061V30L46.6997 28.9386L46.7197 23.271C47.4388 23.7917 48.4974 24.5327 50.2552 24.5327C53.8306 24.5327 57.0865 21.6489 57.0865 15.3004C57.0665 9.4927 53.7707 6.32849 50.2751 6.32849ZM49.0767 20.1269C47.8982 20.1269 47.1991 19.7063 46.7197 19.1856L46.6997 11.7557C47.219 11.1749 47.9381 10.7744 49.0767 10.7744C50.8944 10.7744 52.1528 12.8171 52.1528 15.4406C52.1528 18.1242 50.9143 20.1269 49.0767 20.1269Z" fill="#30D72D"/>
<path fill-rule="evenodd" clip-rule="evenodd" d="M34.835 5.14685L39.8486 4.06541V0L34.835 1.06141V5.14685Z" fill="#30D72D"/>
<path d="M39.8486 6.66882H34.835V24.1921H39.8486V6.66882Z" fill="#30D72D"/>
<path fill-rule="evenodd" clip-rule="evenodd" d="M29.4617 8.15077L29.1421 6.6688H24.8276V24.1921H29.8213V12.3163C30.9998 10.7743 32.9972 11.0546 33.6165 11.2749V6.6688C32.9773 6.42848 30.6402 5.98789 29.4617 8.15077Z" fill="#30D72D"/>
<path fill-rule="evenodd" clip-rule="evenodd" d="M19.4743 2.32324L14.6005 3.36463L14.5806 19.406C14.5806 22.3699 16.7977 24.5528 19.754 24.5528C21.3919 24.5528 22.5904 24.2524 23.2495 23.892V19.8265C22.6104 20.0869 19.4544 21.0081 19.4544 18.0442V10.9347H23.2495V6.66903H19.4544L19.4743 2.32324Z" fill="#30D72D"/>
<path fill-rule="evenodd" clip-rule="evenodd" d="M5.97154 11.7557C5.97154 10.9747 6.61073 10.6743 7.66938 10.6743C9.18745 10.6743 11.105 11.1349 12.6231 11.956V7.24972C10.9652 6.58884 9.32727 6.32849 7.66938 6.32849C3.61454 6.32849 0.917969 8.45132 0.917969 11.996C0.917969 17.5234 8.50831 16.6422 8.50831 19.0254C8.50831 19.9466 7.70933 20.247 6.59075 20.247C4.93286 20.247 2.81555 19.5661 1.13769 18.6449V23.4112C2.99533 24.2123 4.87294 24.5528 6.59075 24.5528C10.7455 24.5528 13.6018 22.49 13.6018 18.9052C13.5819 12.9373 5.97154 13.9987 5.97154 11.7557Z" fill="#30D72D"/>
</svg>
