<svg width="87" height="30" viewBox="0 0 87 30" fill="none" xmlns="http://www.w3.org/2000/svg">
<path d="M5.52022 21.4256C5.88519 22.3948 6.39049 23.2234 7.03621 23.9116C7.68193 24.5998 8.44691 25.1265 9.33116 25.4917C10.2155 25.8568 11.177 26.0394 12.2157 26.0394C13.2264 26.0394 14.1739 25.8498 15.0582 25.4705C15.9425 25.0912 16.7145 24.5576 17.3742 23.8694C18.0339 23.1812 18.5463 22.3596 18.9113 21.4045C19.2762 20.4495 19.4587 19.3821 19.4587 18.2023V0H23.8802V29.4944H19.5008V26.7556C18.5182 27.7949 17.3601 28.5955 16.0267 29.1574C14.6931 29.7191 13.2545 30 11.7104 30C10.1383 30 8.67147 29.7261 7.30987 29.1783C5.94837 28.6306 4.76921 27.8512 3.77268 26.8399C2.77615 25.8286 1.99002 24.6139 1.41456 23.1953C0.839001 21.7767 0.55127 20.1967 0.55127 18.455V0H4.9728V18.2023C4.9728 19.3821 5.15524 20.4565 5.52022 21.4256Z" fill="#30D72D"/>
<path d="M31.5016 0V10.7444C32.4842 9.76123 33.6212 8.98181 34.9125 8.40592C36.2039 7.83002 37.6076 7.54212 39.1235 7.54212C40.6957 7.54212 42.1694 7.83701 43.545 8.42689C44.9206 9.01677 46.1137 9.81736 47.1244 10.8286C48.1351 11.8399 48.9352 13.0337 49.5247 14.4101C50.1142 15.7866 50.4089 17.2472 50.4089 18.7922C50.4089 20.337 50.1142 21.7907 49.5247 23.153C48.9352 24.5154 48.1351 25.7023 47.1244 26.7134C46.1137 27.7247 44.9206 28.5253 43.545 29.1151C42.1694 29.705 40.6956 29.9999 39.1235 29.9999C37.6075 29.9999 36.1969 29.712 34.8915 29.1361C33.5861 28.5603 32.442 27.7808 31.4595 26.7977V29.4943H27.2485V0H31.5016ZM31.9859 21.6994C32.3648 22.5984 32.8913 23.3849 33.565 24.0591C34.2388 24.7332 35.0248 25.267 35.9232 25.6602C36.8216 26.0535 37.79 26.2501 38.8288 26.2501C39.8395 26.2501 40.7939 26.0535 41.6922 25.6602C42.5905 25.267 43.3695 24.7333 44.0294 24.0591C44.6891 23.385 45.2154 22.5984 45.6085 21.6994C46.0015 20.8006 46.198 19.8315 46.198 18.7922C46.198 17.7528 46.0015 16.7767 45.6085 15.8638C45.2154 14.9508 44.6891 14.1573 44.0294 13.4832C43.3696 12.8091 42.5906 12.2823 41.6922 11.9032C40.7938 11.524 39.8394 11.3342 38.8288 11.3342C37.8182 11.3342 36.8637 11.5239 35.9654 11.9032C35.067 12.2824 34.281 12.8091 33.6071 13.4832C32.9335 14.1573 32.4 14.9508 32.007 15.8638C31.614 16.7767 31.4175 17.7528 31.4175 18.7922C31.4174 19.8315 31.6069 20.8006 31.9859 21.6994Z" fill="#30D72D"/>
<path d="M52.8088 14.4525C53.3702 13.1041 54.1424 11.9174 55.1248 10.8921C56.1073 9.86683 57.2725 9.05925 58.62 8.46937C59.9675 7.87949 61.4274 7.58459 62.9994 7.58459C64.5435 7.58459 65.9752 7.8655 67.2947 8.42723C68.6141 8.98905 69.751 9.76856 70.7056 10.7658C71.6601 11.7629 72.4041 12.9427 72.9373 14.3051C73.4708 15.6675 73.7374 17.1492 73.7374 18.7504V20.1408H56.2619C56.4023 21.0116 56.683 21.8192 57.1041 22.5635C57.5253 23.3078 58.0515 23.9539 58.6832 24.5017C59.3148 25.0495 60.0307 25.4779 60.8308 25.7868C61.6309 26.0958 62.4801 26.2503 63.3785 26.2503C65.9332 26.2503 67.9966 25.1969 69.5687 23.0901L72.6427 25.3654C71.5759 26.798 70.2565 27.9216 68.6844 28.7362C67.1123 29.5508 65.3437 29.9581 63.3786 29.9581C61.7783 29.9581 60.2835 29.6771 58.8939 29.1154C57.5042 28.5536 56.2971 27.767 55.2724 26.7558C54.2478 25.7445 53.4407 24.5577 52.8511 23.1954C52.2616 21.8331 51.9668 20.3513 51.9668 18.7502C51.9666 17.2334 52.2474 15.8008 52.8088 14.4525ZM58.7253 12.7881C57.5322 13.7853 56.7391 15.1125 56.3461 16.7698H69.4423C69.0774 15.1125 68.2983 13.7853 67.1052 12.7881C65.9121 11.791 64.5154 11.2923 62.9153 11.2923C61.3151 11.2923 59.9184 11.791 58.7253 12.7881Z" fill="#30D72D"/>
<path d="M81.6959 13.2725C80.7976 14.2556 80.3484 15.5899 80.3484 17.2753V29.4945H76.0952V8.00569H80.3062V10.6602C80.8396 9.78941 81.5345 9.10117 82.3907 8.59557C83.2469 8.08988 84.2646 7.83704 85.4437 7.83704H86.9175V11.7977H85.1489C83.7453 11.7978 82.5943 12.2893 81.6959 13.2725Z" fill="#30D72D"/>
</svg>
