<svg width="151" height="30" viewBox="0 0 151 30" fill="none" xmlns="http://www.w3.org/2000/svg">
<path d="M52.702 21.9041V25.3562H38.4006V21.9041H43.5376V8.09589H38.4006V4.64384H52.702V8.09589H47.565V21.9041H52.702ZM28.4143 4.64384H24.4691L21.6335 21.0411H21.5924L18.3047 5.83562C18.0992 4.80822 17.7704 4.56164 16.7841 4.56164H14.6061C13.6609 4.56164 13.291 4.80822 13.0855 5.83562L9.79785 21.0411H9.71565L6.92113 4.64384H2.68826L6.75675 24.3288C6.92113 25.1918 7.2499 25.3973 8.19511 25.3973H10.9896C11.9348 25.3973 12.2636 25.1918 12.428 24.2877L15.5102 10.0274H15.5924L18.6746 24.2877C18.88 25.1918 19.1677 25.3973 20.1129 25.3973H22.8663C23.8526 25.3973 24.1403 25.1918 24.3047 24.3288L28.4143 4.64384ZM30.5513 30H0.55127V0H30.5513V30ZM80.0307 20.0548C80.0458 21.8278 80.1693 23.5982 80.4006 25.3562H84.5102C84.3869 24.2466 84.2636 22.3973 84.1814 19.7671C84.0992 17.137 83.1129 16.2329 80.9759 15.8219V15.7397C83.3595 15.3699 84.3869 14.2192 84.3869 10.5616C84.3869 7.52055 83.8937 6.41096 83.0718 5.58904C82.2499 4.76712 81.3869 4.68493 79.7841 4.68493H67.1677V25.3562H71.4417V17.3014H77.3595C78.5924 17.3014 79.0855 17.3836 79.4143 17.7123C79.743 18.0411 79.9896 18.411 80.0307 20.0548ZM71.4417 13.9315V8.17808H78.2225C79.1677 8.17808 79.4554 8.26027 79.6198 8.42466C79.7841 8.58904 80.1951 9.16438 80.1951 10.9726C80.1951 12.7808 79.9074 13.3562 79.5787 13.6438C79.2499 13.9315 79.1266 13.9315 78.1814 13.9315H71.4417ZM90.5513 30H60.5513V0H90.5513V30ZM127.168 4.64384V25.3562H137.359C140.277 25.3562 141.88 24.9452 143.154 23.8356C144.428 22.726 145.332 20.137 145.332 15.0411C145.332 9.94521 144.633 7.52055 143.154 6.24658C141.675 4.9726 140.318 4.72603 137.359 4.72603H127.168V4.64384ZM141.099 15C141.099 19.4384 140.729 20.589 139.949 21.2055C139.168 21.8219 138.592 21.8219 137.072 21.8219H131.442V8.17808H137.072C138.633 8.17808 139.291 8.26027 139.949 8.79452C140.606 9.32877 141.099 10.5616 141.099 15.0411V15ZM150.551 30H120.551V0H150.551V30ZM96.0581 8.09589V4.64384H113.688V11.3014H109.99V8.09589H102.839V13.0274H108.51V16.3562H102.839V21.9041H110.154V18.2877H113.894V25.3562H96.0581V21.9041H98.8526V8.09589H96.0581Z" fill="#30D72D"/>
</svg>
